<svg version="1.0" xmlns="http://www.w3.org/2000/svg"
 width="512.000000pt" height="512.000000pt" viewBox="0 0 512.000000 512.000000"
 preserveAspectRatio="xMidYMid meet">
  <g transform="translate(0.000000,512.000000) scale(0.100000,-0.100000)" fill="#000000" stroke="none">
  <path d="M1577 4205 c-736 -120 -1259 -682 -1362 -1463 -17 -130 -20 -418 -5
  -542 98 -806 620 -1398 1341 -1521 107 -18 150 -21 314 -16 202 6 315 23 465
  73 228 76 489 248 634 419 l56 66 0 -250 0 -251 360 0 360 0 0 1720 0 1720
  -360 0 -360 0 0 -246 0 -245 -59 68 c-102 119 -282 253 -449 337 -93 47 -229
  92 -351 117 -130 27 -457 35 -584 14z m489 -614 c487 -47 854 -412 934 -926
  18 -114 16 -350 -4 -465 -66 -378 -274 -670 -581 -816 -393 -187 -839 -111
  -1146 195 -122 121 -228 301 -278 467 -54 184 -70 462 -37 650 64 368 263 645
  571 795 140 68 244 93 435 107 8 1 56 -2 106 -7z"/>
  <path d="M4346 1569 c-192 -66 -306 -227 -306 -434 0 -205 118 -372 308 -434
  114 -38 279 -24 372 32 152 91 230 227 230 402 0 167 -74 304 -212 391 -103
  65 -273 84 -392 43z"/>
  </g>
	<style>
    @media (prefers-color-scheme:dark){:root{filter:invert(100%)}}
  </style>
</svg>
